<svg xmlns="http://www.w3.org/2000/svg" viewBox="0 0 175.54 114.95"><defs><style>.cls-1{fill:#575756;fill-opacity:0.3;stroke:#fff;stroke-miterlimit:10;stroke-width:2px;}.cls-2{fill:#fff;}</style></defs><g id="Layer_2" data-name="Layer 2"><g id="Layer_1-2" data-name="Layer 1"><path class="cls-1" d="M87.77,104.26a69.16,69.16,0,0,1,34.76,9.32l51.64-89.45a172.93,172.93,0,0,0-172.8,0L53,113.58A69.16,69.16,0,0,1,87.77,104.26Z"/><path class="cls-2" d="M101.37,35.53H74.17A8.16,8.16,0,0,0,66,43.69v27.2a8.16,8.16,0,0,0,8.16,8.16h27.2a8.16,8.16,0,0,0,8.16-8.16V43.69A8.16,8.16,0,0,0,101.37,35.53ZM74.17,41h27.2a2.72,2.72,0,0,1,2.72,2.72v27.2a2.72,2.72,0,0,1-.8,1.92L87.46,57A7.26,7.26,0,0,0,77.2,57l-5.75,5.75v-19A2.72,2.72,0,0,1,74.17,41Z"/></g></g></svg>