<svg xmlns="http://www.w3.org/2000/svg" viewBox="0 0 140.39 152.02"><defs><style>.cls-1{fill:#575756;fill-opacity:0.3;stroke:#fff;stroke-miterlimit:10;stroke-width:2px;}.cls-2{fill:#fff;}</style></defs><g id="Layer_2" data-name="Layer 2"><g id="Layer_1-2" data-name="Layer 1"><path class="cls-1" d="M36.13,151H139.39A172.68,172.68,0,0,0,53,1.37L1.37,90.82A69.48,69.48,0,0,1,36.13,151Z"/><path class="cls-2" d="M86.38,81.88a21.79,21.79,0,1,0-8,29.77A21.79,21.79,0,0,0,86.38,81.88Zm-8.17,25.53h0a18.05,18.05,0,0,1-1.33-10.28l7.61,2A18.12,18.12,0,0,1,78.21,107.41Zm7.21-11.76-7.61-2a18.13,18.13,0,0,1,6.29-8.24A17.93,17.93,0,0,1,85.42,95.65ZM82.3,82.24a21.64,21.64,0,0,0-8,10.45l-4.55-1.22L74,75.81A18,18,0,0,1,82.3,82.24ZM70.45,74.87h0l-4.2,15.66L61.7,89.31a21.67,21.67,0,0,0-1.7-13A18,18,0,0,1,70.45,74.87ZM56.85,78.1h0a18.06,18.06,0,0,1,1.33,10.28l-7.61-2A18,18,0,0,1,56.85,78.1Zm-7.2,11.75,7.6,2A18,18,0,0,1,51,100.11,18,18,0,0,1,49.65,89.85Zm3.11,13.42a21.64,21.64,0,0,0,8-10.45L65.31,94l-4.2,15.66A18,18,0,0,1,52.76,103.27Zm11.85,7.37L68.81,95l4.55,1.21a21.64,21.64,0,0,0,1.71,13A18.08,18.08,0,0,1,64.61,110.64Z"/></g></g></svg>