<svg xmlns="http://www.w3.org/2000/svg" viewBox="0 0 140.39 152.02"><defs><style>.cls-1{fill:#575756;fill-opacity:0.3;stroke:#fff;stroke-miterlimit:10;stroke-width:2px;}.cls-2{fill:#fff;}</style></defs><g id="Layer_2" data-name="Layer 2"><g id="Layer_1-2" data-name="Layer 1"><path class="cls-1" d="M139,90.82,87.38,1.37A172.68,172.68,0,0,0,1,151H104.26A69.47,69.47,0,0,1,139,90.82Z"/><path class="cls-2" d="M72.89,92.76a10.88,10.88,0,1,0-14.86,4A10.89,10.89,0,0,0,72.89,92.76ZM57.18,83.7a7.26,7.26,0,1,1,2.66,9.91A7.26,7.26,0,0,1,57.18,83.7Z"/><path class="cls-2" d="M76,94.58a16.33,16.33,0,0,0,6,22.29,1.81,1.81,0,0,0,1.82-3.14,12.69,12.69,0,0,1,12.69-22,1.81,1.81,0,1,0,1.82-3.14A16.35,16.35,0,0,0,76,94.58Z"/></g></g></svg>